<?xml version="1.0" standalone="no"?>
<!DOCTYPE svg PUBLIC "-//W3C//DTD SVG 20010904//EN"
 "http://www.w3.org/TR/2001/REC-SVG-20010904/DTD/svg10.dtd">
<svg version="1.0" xmlns="http://www.w3.org/2000/svg"
 width="348.000000pt" height="145.000000pt" viewBox="0 0 348.000000 145.000000"
 preserveAspectRatio="xMidYMid meet">

<g transform="translate(0.000000,145.000000) scale(0.100000,-0.100000)"
fill="#000000" stroke="none">
<path d="M1741 864 c-15 -20 -21 -41 -21 -80 0 -51 -1 -54 -25 -54 -32 0 -75
-41 -75 -72 0 -36 27 -67 65 -74 l34 -6 3 -197 c3 -190 4 -199 27 -233 57 -82
158 -111 246 -68 81 39 119 126 75 170 -32 32 -73 30 -111 -6 -14 -13 -32 -24
-40 -24 -35 0 -39 21 -39 192 l0 168 55 0 c67 0 101 15 113 50 11 32 -7 84
-33 94 -9 3 -43 6 -76 6 l-59 0 0 60 c0 74 -20 100 -79 100 -31 0 -44 -6 -60
-26z"/>
<path d="M999 701 l-29 -29 0 -275 c0 -262 1 -275 21 -301 16 -20 29 -26 58
-26 74 0 75 4 81 227 5 214 10 233 64 268 35 23 102 22 135 -2 54 -40 61 -71
61 -270 0 -170 1 -184 20 -203 31 -31 93 -27 119 6 20 25 21 39 21 232 0 239
-6 268 -70 333 -82 85 -219 94 -304 18 -40 -34 -46 -36 -46 -10 0 25 -46 61
-77 61 -14 0 -37 -13 -54 -29z"/>
<path d="M2270 600 c-12 -7 -12 -12 -2 -22 7 -7 12 -38 12 -74 0 -67 19 -99
43 -75 8 8 9 14 1 19 -6 4 -14 38 -16 75 l-6 68 29 -6 c17 -4 29 -2 29 3 0 21
-63 29 -90 12z"/>
<path d="M2352 486 c3 -69 21 -83 26 -19 6 80 59 86 64 6 4 -60 22 -59 26 3 4
60 -9 74 -69 72 l-50 -1 3 -61z"/>
<path d="M2509 534 c-18 -22 -1 -46 40 -57 43 -11 34 -33 -13 -30 -43 3 -48
-13 -7 -22 70 -15 98 50 31 71 -44 14 -41 29 5 28 36 -1 47 9 19 20 -28 11
-61 6 -75 -10z"/>
<path d="M2645 534 c-11 -12 -15 -30 -13 -63 3 -46 20 -60 26 -22 2 11 12 23
23 26 11 4 17 11 13 16 -3 6 -13 8 -21 5 -10 -4 -13 0 -11 12 2 11 12 17 28
17 22 0 26 -5 30 -48 3 -26 10 -49 15 -50 14 -3 18 78 5 103 -13 25 -71 27
-95 4z"/>
<path d="M2780 487 l0 -64 43 1 c23 1 48 5 55 10 15 9 17 116 2 116 -5 0 -10
-20 -10 -45 0 -33 -5 -47 -16 -52 -28 -11 -49 11 -52 56 -5 65 -22 48 -22 -22z"/>
<path d="M2930 495 c0 -49 3 -57 25 -67 18 -8 28 -8 39 1 10 8 16 9 21 1 14
-23 25 4 25 61 0 45 -3 59 -14 59 -11 0 -16 -14 -18 -47 -3 -44 -5 -48 -28
-48 -23 0 -25 4 -28 48 -4 65 -22 59 -22 -8z"/>
<path d="M3070 535 c-16 -20 -5 -32 15 -15 28 23 45 4 45 -50 0 -28 5 -50 10
-50 7 0 10 24 8 63 -3 61 -3 62 -34 65 -19 2 -36 -3 -44 -13z"/>
<path d="M3202 538 c-14 -14 -16 -118 -2 -118 6 0 10 9 10 20 0 11 9 25 20 32
11 7 20 17 20 22 0 4 -9 6 -20 3 -22 -6 -25 0 -11 21 4 8 19 12 32 10 21 -3
24 -9 27 -55 4 -69 22 -69 22 0 0 61 -11 77 -55 77 -17 0 -36 -5 -43 -12z"/>
<path d="M3334 536 c-3 -7 -4 -35 -2 -61 3 -47 3 -47 43 -51 55 -5 75 16 75
78 0 36 -4 48 -15 48 -11 0 -15 -12 -15 -51 0 -49 -1 -50 -27 -47 -26 3 -28 7
-31 51 -3 45 -17 62 -28 33z"/>
<path d="M2490 330 c0 -11 5 -20 10 -20 6 0 10 9 10 20 0 11 -4 20 -10 20 -5
0 -10 -9 -10 -20z"/>
<path d="M2968 313 c17 -2 47 -2 65 0 17 2 3 4 -33 4 -36 0 -50 -2 -32 -4z"/>
<path d="M2262 229 c3 -58 5 -64 26 -67 12 -2 22 1 22 7 0 6 -4 11 -9 11 -6 0
-11 23 -13 52 -2 31 -8 53 -16 56 -10 3 -12 -11 -10 -59z"/>
<path d="M2340 225 c0 -58 2 -65 20 -65 11 0 20 5 20 10 0 6 -4 10 -10 10 -5
0 -10 25 -10 55 0 30 -4 55 -10 55 -6 0 -10 -28 -10 -65z"/>
<path d="M2410 225 c0 -37 4 -65 10 -65 6 0 10 11 10 25 0 23 24 45 49 45 6 0
11 -16 11 -35 0 -19 5 -35 11 -35 8 0 10 17 7 50 -3 27 -1 53 4 58 6 6 6 12 0
16 -6 3 -24 -5 -40 -19 -37 -31 -42 -31 -42 0 0 14 -4 25 -10 25 -6 0 -10 -28
-10 -65z"/>
<path d="M2687 283 c-4 -3 -2 -12 4 -19 7 -8 7 -14 -1 -19 -14 -9 -13 -58 2
-73 7 -7 27 -12 45 -12 41 0 63 35 45 74 -7 16 -7 27 0 34 16 16 -6 21 -27 6
-15 -11 -16 -17 -7 -26 17 -17 15 -58 -4 -65 -8 -3 -22 1 -31 10 -14 13 -13
18 3 46 16 28 17 33 4 41 -18 12 -25 12 -33 3z"/>
<path d="M2828 279 c-18 -10 -25 -39 -9 -39 5 0 14 6 21 14 22 27 40 7 40 -45
0 -37 4 -49 15 -49 11 0 15 11 15 43 0 70 -36 103 -82 76z"/>
<path d="M2951 277 c-12 -12 -15 -75 -5 -101 4 -10 18 -16 35 -16 22 0 30 6
35 24 8 31 -1 46 -28 46 -20 0 -20 -1 -4 -19 13 -14 14 -21 6 -26 -16 -10 -31
14 -28 45 3 20 9 26 36 28 l32 3 0 -50 c0 -39 4 -51 15 -51 19 0 22 105 3 117
-20 12 -85 12 -97 0z"/>
<path d="M2575 270 c3 -5 15 -10 25 -10 21 0 34 -31 25 -60 -10 -31 -41 -25
-54 12 -8 23 -14 29 -22 21 -8 -8 -6 -20 5 -42 13 -23 23 -31 44 -31 16 0 33
5 40 12 16 16 16 80 0 96 -15 15 -72 16 -63 2z"/>
</g>
</svg>
